<svg id="Слой_1" xmlns="http://www.w3.org/2000/svg" viewBox="0 0 251.2 43"><style>.st0{fill:#16233c}.st1{fill:#cecdcd}.st2{fill:#989da0}</style><path class="st0" d="M57.8 17.1V3.4h10v3.1h-6.5v2.1h6.4v3.1h-6.4V14h6.5v3.1h-10zm12.1 0V3.4h3.5V14h5.5v3.1h-9zm10.9 0V3.4h10v3.1h-6.5v2.1h6.4v3.1h-6.4V14h6.5v3.1h-10zm21.3 0l-5.8-7.9v7.9h-3.5V3.4h3.6l5.5 7.5V3.4h3.5v13.7h-3.3zm15.2 0l-.7-2h-5.4l-.7 2h-4l5.1-13.7h4.4l5.2 13.7h-3.9zm-3.4-10.2l-1.7 5.1h3.5l-1.8-5.1zm17.3 10.2l-5.1-13.7h4l3.4 9.9 3.4-9.9h4l-5.2 13.7h-4.5zm19 0l-.7-2h-5.4l-.7 2h-4l5.1-13.7h4.4l5.2 13.7h-3.9zm-3.4-10.2l-1.7 5.1h3.5l-1.8-5.1zm7.4 8.3l1.9-2.6c1 1 2.5 1.8 4.4 1.8 1.2 0 1.9-.5 1.9-1.1 0-1.9-7.8-.4-7.8-5.6 0-2.3 1.9-4.3 5.5-4.3 2.2 0 4.1.7 5.6 1.9l-1.9 2.5c-1.1-.9-2.6-1.4-4-1.4-1 0-1.5.4-1.5 1 0 1.7 7.7.5 7.7 5.6 0 2.7-2 4.6-5.7 4.6-2.8-.3-4.8-1.1-6.1-2.4zm16.9 1.9v-5.5l-5.2-8.2h4l3 5 2.9-5h4l-5.2 8.2v5.5h-3.5zm9.7 0V3.4h3.5V14h5.5v3.1h-9zm18.9 0l-3.6-5.1-.9 1.1v4h-3.5V3.4h3.5V9l4.2-5.6h4.3l-5.3 6.4 5.6 7.3h-4.3z"/><path class="st0" d="M203.4 10.3c0-4.2 3.1-7.1 7.3-7.1s7.3 2.9 7.3 7.1-3.1 7.1-7.3 7.1-7.3-3-7.3-7.1zm11.1 0c0-2.2-1.5-4-3.7-4-2.3 0-3.7 1.7-3.7 4 0 2.2 1.5 4 3.7 4 2.2-.1 3.7-1.8 3.7-4zm8.6 6.8L218 3.4h4l3.4 9.9 3.4-9.9h4l-5.2 13.7h-4.5zm19 0l-.7-2H236l-.7 2h-4l5.1-13.7h4.4l5.2 13.7h-3.9zm-3.4-10.2L237 12h3.5l-1.8-5.1z"/><path class="st2" d="M62.6 35h-3.2v3.4h3.8v1h-5.1v-9.5h5.1v1h-3.8V34h3.2v1zm9.5-1.4l1.8-3.7h1.6L73 34.6l2.6 4.8H74l-1.8-3.8-1.8 3.8h-1.6l2.6-4.8-2.5-4.7h1.6l1.6 3.7zm15.2 2.9c0 1-.2 1.7-.8 2.2-.5.5-1.3.8-2.2.8-1 0-1.7-.3-2.3-.9-.6-.6-.9-1.5-.9-2.6v-2.6c0-1.1.3-2 .9-2.6s1.3-.9 2.3-.9c1 0 1.7.3 2.3.8s.8 1.2.8 2.2h-1.3c0-.7-.1-1.2-.4-1.5s-.7-.5-1.3-.5c-.6 0-1 .2-1.3.7-.3.4-.5 1.1-.5 1.9V36c0 .8.2 1.5.5 1.9.3.4.8.7 1.4.7.6 0 1-.2 1.3-.5.3-.3.4-.8.4-1.5h1.1zm7.6 1.9h3.8v1h-5.2v-9.5h1.3v8.5zm15.9-8.5v6.3c0 1.1-.3 1.9-.9 2.5s-1.4.9-2.3.9c-.9 0-1.7-.3-2.3-.9-.6-.6-.9-1.4-.9-2.5v-6.3h1.3v6.3c0 .7.2 1.3.5 1.7.3.4.8.6 1.3.6.6 0 1-.2 1.3-.6.3-.4.5-1 .5-1.7v-6.3h1.5zm10.8 7.1c0-.4-.1-.8-.4-1.1-.2-.3-.7-.5-1.3-.8-.9-.3-1.6-.6-2.1-1.1-.5-.4-.7-1-.7-1.8 0-.7.3-1.4.8-1.8.5-.5 1.2-.7 2-.7.9 0 1.6.3 2.1.8s.8 1.2.8 2h-1.3c0-.6-.1-1-.4-1.3s-.7-.5-1.2-.5-.8.1-1.1.4c-.3.3-.4.7-.4 1.1 0 .4.1.8.4 1 .3.3.7.5 1.4.8.9.3 1.5.7 2 1.1.5.5.7 1 .7 1.8s-.3 1.4-.8 1.8c-.5.5-1.2.7-2.1.7-.8 0-1.6-.2-2.2-.7-.6-.5-.9-1.2-.9-2.1h1.3c0 .6.2 1.1.5 1.4.3.3.8.5 1.3.5s.9-.1 1.2-.4c.3-.3.4-.6.4-1.1zm9.1 2.4h-1.3v-9.5h1.3v9.5zm9.4-2.2l.1.6.1-.6 2-7.3h1.4l-2.9 9.5h-1.3l-2.9-9.5h1.4l2.1 7.3zm14.1-2.2H151v3.4h3.8v1h-5.1v-9.5h5.1v1H151V34h3.2v1zm14.5 4.4v-9.5h2.7c1 0 1.9.4 2.5 1.1.6.8 1 1.7 1 2.9v1.3c0 1.2-.3 2.2-1 2.9s-1.5 1.1-2.5 1.1h-2.7zm1.4-8.5v7.5h1.4c.7 0 1.2-.3 1.6-.9.4-.6.6-1.3.6-2.2V34c0-.9-.2-1.6-.6-2.2-.4-.6-.9-.9-1.6-.9h-1.4zm12.6 4.4v4.1h-1.3v-9.5h2.8c.9 0 1.6.2 2.1.7.5.5.7 1.1.7 2 0 .5-.1.9-.3 1.3s-.6.7-1 .9c.5.2.8.4 1.1.8.2.4.3.9.3 1.4v.8c0 .3 0 .6.1.8.1.3.2.4.3.6v.1H186c-.1-.1-.2-.4-.3-.7 0-.3-.1-.6-.1-.9V37c0-.5-.1-.9-.4-1.3-.2-.3-.6-.5-1-.5h-1.5zm0-1h1.4c.5 0 1-.1 1.2-.4.3-.3.4-.7.4-1.2s-.1-1-.4-1.3c-.3-.3-.6-.4-1.2-.4h-1.5v3.3zm15.5.7H195v3.4h3.8v1h-5.1v-9.5h5.1v1H195V34h3.2v1zm11 2c0-.4-.1-.8-.4-1.1-.2-.3-.7-.5-1.3-.8-.9-.3-1.6-.6-2.1-1.1-.5-.4-.7-1-.7-1.8 0-.7.3-1.4.8-1.8.5-.5 1.2-.7 2-.7.9 0 1.6.3 2.1.8s.8 1.2.8 2h-1.3c0-.6-.1-1-.4-1.3s-.7-.5-1.2-.5-.8.1-1.1.4c-.3.3-.4.7-.4 1.1 0 .4.1.8.4 1 .3.3.7.5 1.4.8.9.3 1.5.7 2 1.1.5.5.7 1 .7 1.8s-.3 1.4-.8 1.8c-.5.5-1.2.7-2.1.7-.8 0-1.6-.2-2.2-.7-.6-.5-.9-1.2-.9-2.1h1.3c0 .6.2 1.1.5 1.4.3.3.8.5 1.3.5s.9-.1 1.2-.4c.3-.3.4-.6.4-1.1zm12 0c0-.4-.1-.8-.4-1.1-.2-.3-.7-.5-1.3-.8-.9-.3-1.6-.6-2.1-1.1-.5-.4-.7-1-.7-1.8 0-.7.3-1.4.8-1.8.5-.5 1.2-.7 2-.7.9 0 1.6.3 2.1.8s.8 1.2.8 2h-1.3c0-.6-.1-1-.4-1.3s-.7-.5-1.2-.5-.8.1-1.1.4c-.3.3-.4.7-.4 1.1 0 .4.1.8.4 1 .3.3.7.5 1.4.8.9.3 1.5.7 2 1.1.5.5.7 1 .7 1.8s-.3 1.4-.8 1.8c-.5.5-1.2.7-2.1.7-.8 0-1.6-.2-2.2-.7-.6-.5-.9-1.2-.9-2.1h1.3c0 .6.2 1.1.5 1.4.3.3.8.5 1.3.5s.9-.1 1.2-.4c.3-.3.4-.6.4-1.1zm12.2-2h-3.2v3.4h3.8v1h-5.1v-9.5h5.1v1h-3.8V34h3.2v1zm11.1 2c0-.4-.1-.8-.4-1.1-.2-.3-.7-.5-1.3-.8-.9-.3-1.6-.6-2.1-1.1-.5-.4-.7-1-.7-1.8 0-.7.3-1.4.8-1.8.5-.5 1.2-.7 2-.7.9 0 1.6.3 2.1.8s.8 1.2.8 2h-1.3c0-.6-.1-1-.4-1.3s-.7-.5-1.2-.5-.8.1-1.1.4c-.3.3-.4.7-.4 1.1 0 .4.1.8.4 1 .3.3.7.5 1.4.8.9.3 1.5.7 2 1.1.5.5.7 1 .7 1.8s-.3 1.4-.8 1.8c-.5.5-1.2.7-2.1.7-.8 0-1.6-.2-2.2-.7-.6-.5-.9-1.2-.9-2.1h1.3c0 .6.2 1.1.5 1.4.3.3.8.5 1.3.5s.9-.1 1.2-.4c.2-.3.4-.6.4-1.1z"/><path class="st0" d="M20.8 35.2L3.6 18 0 21.6l20.8 20.9L42 21.3l-3.7-3.6z"/><path transform="rotate(-45.001 21.015 15.329)" class="st0" d="M10.4 12.8h21.2v5.1H10.4z"/><path transform="rotate(-45.001 15.468 9.782)" class="st0" d="M4.9 7.2h21.2v5.1H4.9z"/><path transform="rotate(-45.001 26.561 20.876)" class="st0" d="M16 18.3h21.2v5.1H16z"/></svg>